# xmcd
#
# Track frame offsets:
# 150
# 651
# 7696
# 20647
# 42022
# 64852
# 85022
# 105192
# 126617
# 149984
# 173714
# 195284
# 217572
# 237534
# 256134
# 276009
# 295184
# 316509
#
# Disc length: 4463 seconds
#
#
# Revision: 1
# Processed by: cddbd v1.5.1PL2 Copyright (c) Steve Scherf et al.
# Submitted via: FreeRIP 2.944 
#
DISCID=e7116d12
DTITLE=小田和正 - 超越自我真精選
DYEAR=2004
DGENRE=R&B
TTITLE0=DATA
TTITLE1=DATA
TTITLE2=DATA
TTITLE3=閃爍的愛
TTITLE4=秋之氣息
TTITLE5=別停止愛
TTITLE6=再見
TTITLE7=Yes-No
TTITLE8=無法言喻
TTITLE9=綠色往日
TTITLE10=Oh!Yeah
TTITLE11=愛情故事突然發生
TTITLE12=My Home Town
TTITLE13=風之坡
TTITLE14=想告訴妳的事
TTITLE15=綠之街
TTITLE16=宛如微風
TTITLE17=Woh Woh
EXTD=
EXTT0=
EXTT1=
EXTT2=
EXTT3=
EXTT4=
EXTT5=
EXTT6=
EXTT7=
EXTT8=
EXTT9=
EXTT10=
EXTT11=
EXTT12=
EXTT13=
EXTT14=
EXTT15=
EXTT16=
EXTT17=
PLAYORDER=
